<?xml version="1.0" encoding="UTF-8"?>
<svg version="1.1" xmlns="http://www.w3.org/2000/svg" width="1536" height="1024">
<path d="M0 0 C506.88 0 1013.76 0 1536 0 C1536 337.92 1536 675.84 1536 1024 C1029.12 1024 522.24 1024 0 1024 C0 686.08 0 348.16 0 0 Z " fill="#72B253" transform="translate(0,0)"/>
<path d="M0 0 C38.80358784 -0.04584708 77.60717157 -0.08105449 116.41078105 -0.10213066 C120.99911449 -0.10463186 125.58744788 -0.10722053 130.17578125 -0.10986328 C131.0891784 -0.1103879 132.00257554 -0.11091252 132.94365139 -0.11145304 C147.70427923 -0.12013922 162.46489138 -0.13589928 177.22550993 -0.15430559 C192.38810226 -0.17305449 207.55068641 -0.18412725 222.71328986 -0.18817699 C232.05814723 -0.19091172 241.40296024 -0.19952735 250.74780394 -0.21583293 C257.16890785 -0.22646151 263.58998906 -0.22958743 270.01110111 -0.22700275 C273.70744776 -0.22573054 277.40371728 -0.22758415 281.10004997 -0.23841095 C299.66129254 -0.29006314 317.85536535 -0.10534736 336 4.25 C336.92022949 4.46760986 337.84045898 4.68521973 338.78857422 4.90942383 C379.54790008 14.82661178 415.56364843 38.64613852 438.1875 74.375 C451.44522308 96.76943612 460.25685244 120.73134914 461 147 C461.03996094 148.20269531 461.07992188 149.40539062 461.12109375 150.64453125 C461.40043534 167.12568489 459.70754609 183.18264515 455 199 C454.78279297 199.76828125 454.56558594 200.5365625 454.34179688 201.328125 C446.34052924 229.32141788 431.13737312 253.35376394 412 275 C411.29875 275.81210937 410.5975 276.62421875 409.875 277.4609375 C399.52877239 289.25720458 388.37587692 300.35130377 376 310 C374.90760034 310.90186092 373.81791216 311.80701284 372.73046875 312.71484375 C362.36678836 321.30328396 351.33096948 328.75065325 340 336 C339.34596191 336.41846191 338.69192383 336.83692383 338.01806641 337.26806641 C333.74815101 339.97058899 329.39819877 342.51260405 325 345 C324.1028125 345.50998535 323.205625 346.0199707 322.28125 346.54541016 C305.66320423 355.92281326 288.67556968 363.83212931 271 371 C270.10216797 371.36738281 269.20433594 371.73476563 268.27929688 372.11328125 C258.63777402 376.04271385 248.91401357 379.43216393 238.94140625 382.41601562 C235.7449053 383.37753855 232.56031979 384.3772277 229.375 385.375 C228.72450684 385.57770508 228.07401367 385.78041016 227.40380859 385.98925781 C223.57845665 387.18336192 219.75964835 388.39614359 215.9453125 389.625 C205.35152199 393.03327779 194.72901039 396.29075396 184.03540039 399.37231445 C178.10585106 401.08361653 172.19802829 402.85084083 166.30249023 404.67578125 C156.80172911 407.61628099 147.27217929 410.2788363 137.63354492 412.72851562 C130.77731931 414.48882689 124.01058455 416.46627796 117.25 418.5625 C101.66002108 423.38947322 85.90376606 427.35496271 70 431 C77.12497753 423.79729544 84.53956902 416.91091012 92.4375 410.5625 C96.62237799 407.19653338 100.58310464 403.66820359 104.5 400 C109.30543917 395.50038725 114.25161243 391.26896541 119.38671875 387.14453125 C121.99847623 385.00125044 124.50365302 382.7761967 127 380.5 C130.39598682 377.40444804 133.86171531 374.44848793 137.4375 371.5625 C142.21428509 367.69941783 146.73946882 363.62088565 151.2578125 359.4609375 C153.90015883 357.08960105 156.60694167 354.84747003 159.375 352.625 C164.28185431 348.66990623 168.91045904 344.4771839 173.49755859 340.16064453 C182.19261219 332 182.19261219 332 185 332 C185 331.34 185 330.68 185 330 C186.51151546 328.64902626 188.08813313 327.37072655 189.6875 326.125 C194.18677102 322.53022161 198.47875404 318.80500884 202.6875 314.875 C206.75116132 311.0839446 210.83969963 307.34396516 215.04296875 303.70703125 C217.3855915 301.66366569 219.69273422 299.58319141 222 297.5 C225.61676345 294.23609152 229.26389608 291.01209051 232.9375 287.8125 C236.09061383 285.04158178 239.2008454 282.22355889 242.3125 279.40625 C243.74215092 278.12621371 245.17613714 276.85044217 246.63891602 275.60839844 C252.78989419 270.35522634 258.50175992 264.68435808 264.2175293 258.96777344 C265.92543056 257.26205402 267.64118045 255.56450973 269.35742188 253.8671875 C276.0323867 247.22665302 282.21777166 240.44550473 288 233 C288.7266687 232.07815918 288.7266687 232.07815918 289.46801758 231.13769531 C304.4929111 211.77920708 314.57949242 190.78048113 313 166 C312.45663906 162.66615828 311.54828355 159.99179603 310 157 C309.57460938 156.17242187 309.14921875 155.34484375 308.7109375 154.4921875 C303.09955281 144.4397069 295.85964642 138.73427135 286 133 C285.23042969 132.53464844 284.46085937 132.06929687 283.66796875 131.58984375 C267.78037442 122.73934401 249.94722901 123.42731568 232.34033144 123.53573751 C228.76936546 123.55322435 225.19842297 123.54715103 221.62742615 123.54412842 C215.46000596 123.54204429 209.29275675 123.55445405 203.12537956 123.57707977 C194.20872789 123.60976999 185.29215779 123.62002406 176.3754527 123.62503174 C161.90414507 123.6337579 147.4329283 123.66030023 132.96166992 123.69824219 C118.91512502 123.735032 104.86860492 123.76330951 90.82202148 123.78027344 C89.95428507 123.78132433 89.08654867 123.78237523 88.19251721 123.78345796 C83.83876935 123.78867861 79.48502131 123.79373332 75.13127315 123.79870558 C39.08745133 123.84008406 3.04373278 123.91045887 -33 124 C-31.93763099 115.22335275 -31.93763099 115.22335275 -30.80078125 111.109375 C-30.56415771 110.24554199 -30.32753418 109.38170898 -30.08374023 108.49169922 C-29.82923096 107.58693848 -29.57472168 106.68217773 -29.3125 105.75 C-29.04703369 104.78980957 -28.78156738 103.82961914 -28.50805664 102.84033203 C-26.50895257 95.66523937 -24.36455039 88.53873593 -22.18530273 81.41674805 C-20.14570471 74.67275392 -18.42356315 67.87169207 -16.75805664 61.02709961 C-15.3395984 55.23645245 -13.70594333 49.54998582 -11.8984375 43.8671875 C-10.75658002 40.22317278 -9.76347132 36.54802516 -8.77734375 32.859375 C-7.9091582 29.66584825 -6.98637662 26.49034798 -6.0625 23.3125 C-4.55849578 18.07943653 -3.17769358 12.82852456 -1.87109375 7.54296875 C-1.68961792 6.81283569 -1.50814209 6.08270264 -1.32116699 5.33044434 C-0.87975385 3.55388371 -0.43972951 1.77697811 0 0 Z " fill="#FDFDFD" transform="translate(616,238)"/>
<path d="M0 0 C43.56 0 87.12 0 132 0 C129.75053832 12.37203924 129.75053832 12.37203924 128.44921875 16.91015625 C128.165625 17.90974365 127.88203125 18.90933105 127.58984375 19.93920898 C127.29207031 20.96989502 126.99429688 22.00058105 126.6875 23.0625 C126.05586688 25.28381928 125.42435701 27.50517361 124.79296875 29.7265625 C124.48536621 30.80196289 124.17776367 31.87736328 123.86083984 32.98535156 C122.72444992 36.96497231 121.60761953 40.94978976 120.5 44.9375 C120.20923584 45.98103638 120.20923584 45.98103638 119.91259766 47.0456543 C118.6993745 51.41845577 117.51638678 55.79868749 116.34765625 60.18359375 C113.4982677 70.86939198 110.59419769 81.51445026 107.34448242 92.08569336 C104.61938934 101.06040528 102.25923805 110.13405856 99.89086914 119.20800781 C98.022031 126.33019411 96.00374408 133.36814869 93.73876953 140.37524414 C92.86453257 143.02684179 92.86453257 143.02684179 93 146 C93.56879883 145.74532959 94.13759766 145.49065918 94.72363281 145.22827148 C109.06334223 138.8251027 123.49133256 132.67556408 137.99987793 126.66741943 C148.71069075 122.23027596 159.3760458 117.70366617 170 113.0625 C178.7196665 109.25388414 187.46380656 105.56361741 196.32177734 102.08935547 C203.82764567 99.12106297 211.22622392 95.91100955 218.625 92.6875 C219.58987839 92.26718506 219.58987839 92.26718506 220.57424927 91.83837891 C221.21820648 91.55784668 221.8621637 91.27731445 222.52563477 90.98828125 C223.8230572 90.42312606 225.12050182 89.85802178 226.41796875 89.29296875 C227.05926224 89.01367523 227.70055573 88.73438171 228.36128235 88.44662476 C237.70267402 84.38330521 247.09063967 80.43007869 256.48095703 76.48144531 C259.7258274 75.11542107 262.96892748 73.74530018 266.21150208 72.37384033 C269.06613889 71.16712794 271.92187927 69.96304319 274.77786255 68.75952148 C276.16520707 68.17437337 277.55215656 67.58828769 278.93869019 67.0012207 C280.87204019 66.18295224 282.80691254 65.3683908 284.7421875 64.5546875 C285.8544873 64.08530762 286.96678711 63.61592773 288.11279297 63.13232422 C290.41990792 62.2275044 292.58263746 61.51135104 295 61 C291.59336665 64.4935056 288.07314996 67.70456632 284.3125 70.8125 C283.52431885 71.46424194 283.52431885 71.46424194 282.72021484 72.12915039 C274.99534052 78.50036137 267.12804035 84.68772159 259.24487305 90.86083984 C255.60521872 93.71785245 252.00679558 96.617571 248.4375 99.5625 C244.09379571 103.1400407 239.65989688 106.57921228 235.18505859 109.99072266 C230.7440628 113.39258519 226.39485319 116.89865807 222.0625 120.4375 C215.34143255 125.92700024 208.55249193 131.32020947 201.71337891 136.66162109 C198.82677177 138.91644872 195.94395563 141.17609422 193.0625 143.4375 C192.48741699 143.88883301 191.91233398 144.34016602 191.31982422 144.80517578 C186.3946707 148.67699655 181.50379122 152.59081458 176.61669922 156.51049805 C171.74128983 160.41703546 166.83531393 164.2831701 161.91796875 168.13671875 C157.79722808 171.36775404 153.70417739 174.63162111 149.62109375 177.91015625 C146.44989495 180.43860835 143.25615485 182.93752072 140.0625 185.4375 C135.8369552 188.74720784 131.64411657 192.08827517 127.5 195.5 C122.88021228 199.30254457 118.1931038 203.0092897 113.48144531 206.6965332 C107.78246272 211.16001235 102.12881608 215.67877462 96.484375 220.2109375 C94.35854121 221.9169249 92.22394256 223.60798083 90.078125 225.2890625 C89.22734375 225.95679688 88.3765625 226.62453125 87.5 227.3125 C86.7884375 227.86550781 86.076875 228.41851563 85.34375 228.98828125 C65.40018354 246.10650913 56.32344383 269.99605925 49.86767578 294.72412109 C48.72253633 299.04755416 47.49950518 303.34713871 46.27514648 307.64868164 C43.59560771 317.06667539 41.09024148 326.50674766 38.77734375 336.02099609 C37.33037128 341.89153591 35.61084868 347.63452161 33.74267578 353.38330078 C32.02361997 358.73315662 30.73780146 364.12611518 29.578125 369.62109375 C29 372 29 372 28 373 C26.36776544 373.09605864 24.7313561 373.12187821 23.09629822 373.12025452 C21.50396111 373.12231651 21.50396111 373.12231651 19.87945557 373.12442017 C18.1175589 373.11902725 18.1175589 373.11902725 16.32006836 373.11352539 C15.09097244 373.11367142 13.86187653 373.11381744 12.59553528 373.1139679 C9.21551328 373.11338892 5.83555171 373.10835964 2.45554042 373.10139394 C-1.07321194 373.09515988 -4.60196503 373.09455656 -8.13072205 373.09336853 C-14.81723119 373.09025537 -21.50372406 373.08204218 -28.19022602 373.07201904 C-35.80074303 373.06085744 -43.4112608 373.05534733 -51.02178395 373.05032361 C-66.68119874 373.03985956 -82.34059727 373.02226041 -98 373 C-97.14958604 367.83475008 -96.08457567 362.77875757 -94.875 357.6875 C-94.55112305 356.32347046 -94.55112305 356.32347046 -94.22070312 354.93188477 C-92.21753941 346.64358448 -89.92575316 338.44679941 -87.59179688 330.24658203 C-85.5375098 323.00398932 -83.61780131 315.74221706 -81.86132812 308.42163086 C-80.58536189 303.15708429 -79.16017063 297.94205203 -77.69921875 292.7265625 C-74.82351553 282.45339501 -72.12517212 272.13617514 -69.4375 261.8125 C-61.30519452 230.62702214 -61.30519452 230.62702214 -57.10864258 215.58911133 C-53.93310579 204.2039962 -50.90137922 192.79896154 -48.07641602 181.32202148 C-46.47888564 174.85194187 -44.77398392 168.42373388 -42.96630859 162.00952148 C-38.75454409 147.06428086 -34.72600205 132.06872984 -31.01171875 116.9921875 C-29.59697744 111.3360832 -28.03144263 105.72052214 -26.48754883 100.09863281 C-23.44911015 89.02354725 -20.50274988 77.92408345 -17.55126953 66.82557678 C-16.36960916 62.38375518 -15.18220514 57.94349795 -13.9921875 53.50390625 C-9.2240585 35.69354203 -4.60761551 17.85451011 0 0 Z " fill="#FDFDFD" transform="translate(564,413)"/>
</svg>
